<svg xmlns="http://www.w3.org/2000/svg" xml:space="preserve" width="512" height="512" viewBox="0 0 60 60"><g fill="none"><path fill="#c81e1e" d="M26 29h8v20h-8zm8-9v5h-8v-5a1 1 0 0 1 1-1h6a1 1 0 0 1 1 1m0 33v5a1 1 0 0 1-1 1h-6a1 1 0 0 1-1-1v-5z" data-original="#c81e1e"/><path fill="#f44335" d="M26 20.12v37.82a1 1 0 0 1-1.4.91l-23-10.12a.99.99 0 0 1-.6-.91V10a.993.993 0 0 1 1.4-.91l.98.43 22.02 9.69a.98.98 0 0 1 .6.91" data-original="#f44335"/><path fill="#c81e1e" d="M25.4 19.21 3.38 9.52l-.98-.43a.987.987 0 0 0-1.375.71L22.4 19.21a.98.98 0 0 1 .6.91v37.82a1 1 0 0 1-.025.2l1.625.715a1 1 0 0 0 1.4-.91V20.12a.98.98 0 0 0-.6-.91M59 10v37.82a.99.99 0 0 1-.6.91l-23 10.12a1 1 0 0 1-1.4-.91V20.12a.98.98 0 0 1 .6-.91l22.02-9.69.98-.43A.993.993 0 0 1 59 10" data-original="#c81e1e"/><path fill="#ffe0b2" d="M56.62 9.52 34.6 19.21a.98.98 0 0 0-.6.91V20a1 1 0 0 0-1-1h-3v-3l.03-.2c.48-1.85 7.38-6.78 16.97-9.49 1.55-.44 3.17-.82 4.84-1.12a2.02 2.02 0 0 1 1.9.73z" data-original="#ffe0b2"/><path fill="#dfc49c" d="M53.74 5.92a2.02 2.02 0 0 0-1.9-.73c-.528.095-1.042.211-1.56.321a2 2 0 0 1 .46.409l2.88 3.6L32.077 19H33a1 1 0 0 1 1 1v.12a.98.98 0 0 1 .6-.91l22.02-9.69z" data-original="#dfc49c"/><path fill="#ffe0b2" d="M30 16v3h-3a1 1 0 0 0-1 1v.12a.98.98 0 0 0-.6-.91L3.38 9.52l2.88-3.6a2.02 2.02 0 0 1 1.9-.73c1.67.3 3.29.68 4.84 1.12 9.59 2.71 16.49 7.64 16.97 9.49z" data-original="#ffe0b2"/><path fill="#dfc49c" d="M29.97 15.8c-.48-1.85-7.38-6.78-16.97-9.49V1c14.78 2.77 16.76 13.22 16.97 14.8M47 1v5.31c-9.59 2.71-16.49 7.64-16.97 9.49C30.24 14.22 32.22 3.77 47 1" data-original="#dfc49c"/><path fill="#f57c00" d="m55 28-17 8V26l17-8z" data-original="#f57c00"/><path fill="#ff9801" d="m5 28 17 8V26L5 18z" data-original="#ff9801"/><path fill="#ffdc00" d="M26 25h8v4h-8z" data-original="#ffdc00"/><path fill="#fec108" d="M31 25h3v4h-3z" data-original="#fec108"/><path fill="#ffdc00" d="M26 49h8v4h-8z" data-original="#ffdc00"/><path fill="#fec108" d="M31 49h3v4h-3z" data-original="#fec108"/><g fill="#000"><path d="M59.093 8.326a2 2 0 0 0-1.9-.156l-.276.122-2.4-3a2.99 2.99 0 0 0-2.859-1.086 52 52 0 0 0-3.659.8V1a1 1 0 0 0-1.184-.983C35.858 2.071 31.617 8.29 30 12.27 28.378 8.283 24.136 2.07 13.184.017A1 1 0 0 0 12 1v4.012c-1.2-.309-2.42-.581-3.659-.8A3 3 0 0 0 5.482 5.3l-2.4 3-.276-.121A2 2 0 0 0 0 10v37.816a2 2 0 0 0 1.194 1.83l23 10.12a1.91 1.91 0 0 0 1.738-.082c.318.205.69.315 1.068.316h6c.378 0 .749-.11 1.067-.315.285.16.605.246.932.252a2 2 0 0 0 .807-.17l23-10.12A2 2 0 0 0 60 47.816V10c0-.676-.34-1.306-.907-1.674m-7.082-2.148c.358-.057.72.083.945.367l2.067 2.581-20.83 9.165c-.029.012-.05.035-.079.049A2 2 0 0 0 33 18h-2v-1.964c.421-1.409 8.734-7.662 21.011-9.858M33 20v4h-6v-4zm-6 6h6v2h-6zm0 4h6v18h-6zm0 20h6v2h-6zM46 2.228v3.34a46.8 46.8 0 0 0-13.733 6.506C33.9 8.71 37.618 4.134 46 2.228m-32 0c8.376 1.9 12.093 6.475 13.73 9.844A46.7 46.7 0 0 0 14 5.568zM7.044 6.545c.226-.284.587-.424.945-.367 12.255 2.192 20.558 8.426 21 9.793l.015.1V18H27c-.397 0-.785.118-1.114.34-.029-.014-.051-.037-.08-.05L4.977 9.126zM2 47.816V10l23 10.12v37.816zM27 58v-4h6v4zm8-.064V20.121L58 10v37.816z" data-original="#000000"/><path d="M55.536 17.156a1 1 0 0 0-.962-.061l-17 8A1 1 0 0 0 37 26v10a1 1 0 0 0 1.426.905l17-8A1 1 0 0 0 56 28V18a1 1 0 0 0-.464-.844M54 27.365l-15 7.059v-7.789l15-7.059zM22.426 25.1l-17-8A1 1 0 0 0 4 18v10a1 1 0 0 0 .574.905l17 8A1 1 0 0 0 23 36V26a1 1 0 0 0-.574-.9M21 34.424 6 27.365v-7.789l15 7.059zm1.426 5.676-17-8a1 1 0 0 0-.852 1.81l17 8a1 1 0 0 0 .852-1.81M20.4 44.144l-12.955-6.1a1 1 0 1 0-.845 1.812l12.954 6.1a1 1 0 1 0 .852-1.809zM54.574 32.1l-17 8a1 1 0 1 0 .852 1.81l17-8a1 1 0 0 0-.852-1.81m-2.022 5.947L39.6 44.144a1 1 0 0 0 .852 1.809l12.954-6.1a1 1 0 1 0-.851-1.809z" data-original="#000000"/></g></g></svg>